<svg version="1.1" id="Layer_1" xmlns="http://www.w3.org/2000/svg" xmlns:xlink="http://www.w3.org/1999/xlink" x="0px" y="0px"
	 width="100%" viewBox="0 0 192 192" enable-background="new 0 0 192 192" xml:space="preserve">
<path fill="#000000" opacity="1.000000" stroke="none" 
	d="
M131.363190,125.469223 
	C120.989586,101.218498 110.800507,77.303238 100.516014,53.164021 
	C104.470604,52.172997 108.451233,52.721752 112.377808,52.688721 
	C122.708702,52.601814 133.042435,52.764420 143.371567,52.603783 
	C146.920303,52.548584 148.422012,53.537010 148.406464,57.378235 
	C148.285202,87.372780 148.339691,117.368027 148.316803,147.363037 
	C148.316071,148.309158 148.065353,149.255081 147.825897,150.943436 
	C137.914337,144.948532 135.513000,134.858841 131.363190,125.469223 
z"/>
<path fill="#000000" opacity="1.000000" stroke="none" 
	d="
M64.745316,120.500710 
	C60.888496,128.963699 59.200848,137.911316 54.015045,145.427567 
	C52.383163,147.792801 50.460796,149.147446 47.930111,149.967850 
	C46.068958,148.401642 46.690342,146.444016 46.687798,144.729904 
	C46.645065,115.944168 46.730286,87.157959 46.576626,58.372982 
	C46.554081,54.149551 47.582253,52.463264 52.121277,52.567780 
	C64.095093,52.843464 76.079613,52.638363 88.059669,52.680397 
	C89.469208,52.685337 91.037125,52.198135 92.387367,53.506176 
	C85.549980,60.798027 84.020844,70.537560 80.469330,79.304657 
	C75.000244,92.805405 70.083138,106.529770 64.745316,120.500710 
z"/>
<path fill="#000000" opacity="1.000000" stroke="none" 
	d="
M67.661644,140.904602 
	C68.249184,134.395737 71.288719,129.189178 73.668716,123.748528 
	C74.574005,121.679031 76.450165,121.652313 78.324448,121.653214 
	C89.143173,121.658386 99.962265,121.703575 110.780357,121.621086 
	C113.265663,121.602135 114.857544,122.477303 115.851669,124.760605 
	C117.572517,128.713043 119.644119,132.527283 121.145576,136.557083 
	C123.054337,141.680069 121.975769,144.144424 117.153069,146.655075 
	C115.554893,147.487076 113.787102,148.068192 112.032806,148.509277 
	C108.740067,149.337173 106.472298,150.817657 107.563530,155.037994 
	C98.793640,155.037994 90.368179,155.037994 81.503395,155.037994 
	C82.284592,150.715546 79.306442,149.622437 76.011612,148.464462 
	C72.400429,147.195328 67.901978,146.665161 67.661644,140.904602 
z"/>
<path fill="#000000" opacity="1.000000" stroke="none" 
	d="
M95.338089,73.742661 
	C100.350960,85.500549 105.200356,96.922714 110.071571,108.335564 
	C111.570168,111.846642 110.174728,114.048004 106.672234,114.163521 
	C98.376839,114.437119 90.062729,114.431389 81.765198,114.206406 
	C78.571312,114.119797 77.058014,112.315201 78.404243,108.779449 
	C82.703323,97.488335 86.798889,86.119659 91.112419,74.834213 
	C91.735214,73.204826 92.628716,70.421104 95.338089,73.742661 
z"/>
</svg>